<svg xmlns="http://www.w3.org/2000/svg" viewBox="0 0 199.35 186.71"><defs><style>.cls-1{fill:#fff;}</style></defs><g id="Layer_2" data-name="Layer 2"><g id="Layer_1-2" data-name="Layer 1"><path d="M14.18,90.6v85.74H85.12V106.15H114.6v70.19h70.94V90.6ZM77,154.87H21.44V106.15H77Zm101.34,0H122.77V106.15h55.52Z"/><path class="cls-1" d="M1.29,90.92a10.91,10.91,0,0,0,21.81,0Z"/><path d="M12.2,102.82A11.92,11.92,0,0,1,.29,90.92a1,1,0,0,1,1-1H23.1a1,1,0,0,1,1,1A11.92,11.92,0,0,1,12.2,102.82ZM2.34,91.92a9.91,9.91,0,0,0,19.71,0Z"/><path class="cls-1" d="M23.1,90.92a10.91,10.91,0,0,0,21.81,0Z"/><path d="M34,102.82A11.92,11.92,0,0,1,22.1,90.92a1,1,0,0,1,1-1H44.91a1,1,0,0,1,1,1A11.92,11.92,0,0,1,34,102.82Zm-9.86-10.9a9.91,9.91,0,0,0,19.71,0Z"/><path class="cls-1" d="M66.72,90.92a10.91,10.91,0,0,0,21.81,0Z"/><path d="M77.62,102.82a11.92,11.92,0,0,1-11.9-11.9,1,1,0,0,1,1-1H88.53a1,1,0,0,1,1,1A11.92,11.92,0,0,1,77.62,102.82Zm-9.85-10.9a9.91,9.91,0,0,0,19.71,0Z"/><path class="cls-1" d="M88.53,90.92a10.91,10.91,0,0,0,21.81,0Z"/><path d="M99.43,102.82a11.92,11.92,0,0,1-11.9-11.9,1,1,0,0,1,1-1h21.81a1,1,0,0,1,1,1A11.92,11.92,0,0,1,99.43,102.82Zm-9.85-10.9a9.91,9.91,0,0,0,19.71,0Z"/><path class="cls-1" d="M44.91,90.92a10.91,10.91,0,0,0,21.81,0Z"/><path d="M55.82,102.82a11.92,11.92,0,0,1-11.91-11.9,1,1,0,0,1,1-1H66.72a1,1,0,0,1,1,1A11.92,11.92,0,0,1,55.82,102.82ZM46,91.92a9.91,9.91,0,0,0,19.71,0Z"/><polygon class="cls-1" points="50.07 43.85 44.91 90.92 23.1 90.92 32.63 43.85 50.07 43.85"/><path d="M44.91,91.92H23.1a1,1,0,0,1-.77-.37,1,1,0,0,1-.21-.83l9.53-47.07a1,1,0,0,1,1-.8H50.07a1,1,0,0,1,.74.33,1,1,0,0,1,.25.78L45.91,91A1,1,0,0,1,44.91,91.92Zm-20.58-2H44L49,44.85H33.44Z"/><path d="M88.53,91.92H66.72a1,1,0,0,1-1-1l2.57-47.07a1,1,0,0,1,1-1H90.08a1,1,0,0,1,.72.31,1,1,0,0,1,.28.74L89.53,91A1,1,0,0,1,88.53,91.92Zm-20.8-2H87.58L89,44.85H70.28Z"/><path d="M66.72,91.92H44.91a1,1,0,0,1-.74-.33,1,1,0,0,1-.25-.78l5.16-47.07a1,1,0,0,1,1-.89H69a1,1,0,0,1,.73.31,1,1,0,0,1,.27.74L67.72,91A1,1,0,0,1,66.72,91.92ZM46,89.92H65.77L68,44.85H51Z"/><path d="M23.1,91.92H1a1,1,0,0,1-.8-.4A1,1,0,0,1,0,90.65L13.48,43.58a1,1,0,0,1,1-.73H32.63a1,1,0,0,1,.77.37,1,1,0,0,1,.21.83L24.08,91.12A1,1,0,0,1,23.1,91.92Zm-20.77-2h20L31.4,44.85H15.19Z"/><path class="cls-1" d="M198.06,90.92a10.91,10.91,0,0,1-21.81,0Z"/><path d="M187.15,102.82a11.92,11.92,0,0,1-11.9-11.9,1,1,0,0,1,1-1h21.81a1,1,0,0,1,1,1A11.92,11.92,0,0,1,187.15,102.82Zm-9.85-10.9a9.91,9.91,0,0,0,19.71,0Z"/><path class="cls-1" d="M176.25,90.92a10.91,10.91,0,0,1-21.81,0Z"/><path d="M165.34,102.82a11.92,11.92,0,0,1-11.9-11.9,1,1,0,0,1,1-1h21.81a1,1,0,0,1,1,1A11.92,11.92,0,0,1,165.34,102.82Zm-9.85-10.9a9.91,9.91,0,0,0,19.71,0Z"/><path class="cls-1" d="M132.63,90.92a10.91,10.91,0,0,1-21.81,0Z"/><path d="M121.73,102.82a11.92,11.92,0,0,1-11.91-11.9,1,1,0,0,1,1-1h21.81a1,1,0,0,1,1,1A11.92,11.92,0,0,1,121.73,102.82Zm-9.86-10.9a9.91,9.91,0,0,0,19.71,0Z"/><path class="cls-1" d="M154.44,90.92a10.91,10.91,0,0,1-21.81,0Z"/><path d="M143.54,102.82a11.92,11.92,0,0,1-11.91-11.9,1,1,0,0,1,1-1h21.81a1,1,0,0,1,1,1A11.92,11.92,0,0,1,143.54,102.82Zm-9.86-10.9a9.91,9.91,0,0,0,19.71,0Z"/><polygon class="cls-1" points="149.28 43.85 154.44 90.92 176.25 90.92 166.73 43.85 149.28 43.85"/><path d="M176.25,91.92H154.44a1,1,0,0,1-1-.89L148.29,44a1,1,0,0,1,.25-.78,1,1,0,0,1,.74-.33h17.45a1,1,0,0,1,1,.8l9.52,47.07a1,1,0,0,1-.21.83A1,1,0,0,1,176.25,91.92Zm-20.91-2H175l-9.12-45.07H150.4Z"/><path d="M132.63,91.92H110.82a1,1,0,0,1-1-1L108.28,43.9a1,1,0,0,1,.27-.74,1,1,0,0,1,.73-.31h20.78a1,1,0,0,1,1,1l2.57,47.07a1,1,0,0,1-.29.71A1,1,0,0,1,132.63,91.92Zm-20.86-2h19.85l-2.55-45.07H110.33Z"/><path d="M154.44,91.92H132.63a1,1,0,0,1-1-1L129.35,43.9a1,1,0,0,1,.28-.74,1,1,0,0,1,.72-.31h18.93a1,1,0,0,1,1,.89l5.16,47.07a1,1,0,0,1-1,1.11Zm-20.85-2h19.74l-5-45.07h-17Z"/><path d="M198.35,91.92h-22.1a1,1,0,0,1-1-.8l-9.52-47.07a1,1,0,0,1,1-1.2h18.18a1,1,0,0,1,1,.73l13.44,47.07a1,1,0,0,1-1,1.27Zm-21.28-2h20L184.16,44.85H168Z"/><polygon class="cls-1" points="89.88 43.85 108.98 43.85 110.34 90.92 88.53 90.92 89.88 43.85"/><path d="M110.36,91.92H88.53a1,1,0,0,1-.72-.3,1,1,0,0,1-.28-.73l1.35-47.07a1,1,0,0,1,1-1H109a1,1,0,0,1,1,1l1.35,46.87a.91.91,0,0,1,0,.23A1,1,0,0,1,110.36,91.92Zm-20.8-2h19.75L108,44.85H90.85Z"/><rect x="55.96" y="33.31" width="2" height="10.4"/><rect x="134.61" y="33.31" width="2" height="10.4"/><path d="M192.31,186.71H7a1,1,0,0,1-1-1v-9.37a1,1,0,0,1,1-1H192.31a1,1,0,0,1,1,1v9.37A1,1,0,0,1,192.31,186.71ZM8,184.71H191.31v-7.37H8Z"/><path d="M108.28,144a3,3,0,1,1,3-3A3,3,0,0,1,108.28,144Zm0-4a1,1,0,1,0,1,1A1,1,0,0,0,108.28,140Z"/><path d="M64.56,146.72H33a1,1,0,0,1-1-1V133.61a1,1,0,0,1,1-1H64.56a1,1,0,0,1,1,1V145.7A1,1,0,0,1,64.56,146.72Zm-31.38-1.25H64.33V133.84H33.18Z"/><path d="M52.87,133.65a.63.63,0,0,1-.56-.33l-3.55-6.84-3.56,6.84a.66.66,0,0,1-.84.27.61.61,0,0,1-.28-.81l4.12-7.91a.66.66,0,0,1,1.11,0l4.12,7.91a.6.6,0,0,1-.28.81A.67.67,0,0,1,52.87,133.65Z"/><path d="M50.81,125.16a2.06,2.06,0,1,1-2.05-2A2.05,2.05,0,0,1,50.81,125.16Z"/><path d="M151.31,141a11.5,11.5,0,1,1,11.5-11.5A11.51,11.51,0,0,1,151.31,141Zm0-21.5a10,10,0,1,0,10,10A10,10,0,0,0,151.31,119.5Z"/><path d="M151.31,117.75c-6.37,0-11.53,4.88-11.53,10.9,0,0,0,.07,0,.11a12.62,12.62,0,0,0,5.61,1.3,12.27,12.27,0,0,0,10.61-5.9c1.58,3.39,4,5.64,6.73,5.88a10.7,10.7,0,0,0,.1-1.39C162.84,122.63,157.68,117.75,151.31,117.75Z"/><path d="M148.43,131c0,1.11-.53,2-1.19,2s-1.2-.9-1.2-2,.54-2,1.2-2S148.43,129.91,148.43,131Z"/><path d="M156.58,131c0,1.11-.53,2-1.19,2s-1.2-.9-1.2-2,.54-2,1.2-2S156.58,129.91,156.58,131Z"/><path d="M156.58,115.48c0,2-2.36,3.61-5.27,3.61s-5.27-1.61-5.27-3.61,2.36-3.61,5.27-3.61S156.58,113.49,156.58,115.48Z"/><path d="M155.39,134.36A3.35,3.35,0,0,1,152,131a.5.5,0,0,1,.5-.5h5.69a.5.5,0,0,1,.5.5A3.35,3.35,0,0,1,155.39,134.36Zm-2.29-2.84a2.35,2.35,0,0,0,4.58,0Z"/><path d="M147.24,134.36a3.35,3.35,0,0,1-3.35-3.34.5.5,0,0,1,.5-.5h5.69a.5.5,0,0,1,.5.5A3.35,3.35,0,0,1,147.24,134.36ZM145,131.52a2.35,2.35,0,0,0,4.58,0Z"/><path d="M151.31,137.93c-1.66,0-3.34-.44-3.34-1.42a.5.5,0,0,1,1-.06,4.19,4.19,0,0,0,2.34.48,4,4,0,0,0,2.37-.5.45.45,0,0,1,.49-.46.53.53,0,0,1,.49.54C154.66,137.49,153,137.93,151.31,137.93Z"/><path d="M152.54,132.31h-2.46a.5.5,0,1,1,0-1h2.46a.5.5,0,1,1,0,1Z"/><path d="M151.31,141.25c-8.59,0-15.55,11.44-15.55,14.46h31.1C166.86,152.69,159.9,141.25,151.31,141.25Zm8.66,7.81h-5.78V146.5H160Z"/><path d="M64.52,24.52a4.21,4.21,0,0,0-1.1-3,10.83,10.83,0,0,0-2.75-2.07,34.24,34.24,0,0,0-3.59-1.69,19.53,19.53,0,0,1-3.59-1.92,10.07,10.07,0,0,1-2.75-2.77,7.43,7.43,0,0,1-1.1-4.21,7.08,7.08,0,0,1,2.51-5.73C53.82,1.71,56.2,1,59.28,1a27.18,27.18,0,0,1,4.89.4,13.09,13.09,0,0,1,3.44,1l-1.1,3.26a15.13,15.13,0,0,0-3-1,19.77,19.77,0,0,0-4.42-.45,6.35,6.35,0,0,0-4.36,1.3,4,4,0,0,0-1.46,3.06,4,4,0,0,0,1.1,2.86,11.27,11.27,0,0,0,2.76,2c1.1.6,2.29,1.2,3.59,1.78a22.45,22.45,0,0,1,3.59,2,10.92,10.92,0,0,1,2.75,2.8,7.12,7.12,0,0,1,1.1,4.05,8.72,8.72,0,0,1-.71,3.57,7.54,7.54,0,0,1-2.07,2.73,9.64,9.64,0,0,1-3.3,1.76,14.52,14.52,0,0,1-4.4.62,24.27,24.27,0,0,1-5.46-.51,15.07,15.07,0,0,1-3.35-1.12L50.12,28a14.65,14.65,0,0,0,3,1.09,16.9,16.9,0,0,0,4.45.54,12.62,12.62,0,0,0,2.73-.29,6.35,6.35,0,0,0,2.2-.92A4.92,4.92,0,0,0,64,26.81,4.54,4.54,0,0,0,64.52,24.52Z"/><path d="M57.7,33.89A25.17,25.17,0,0,1,52,33.35a15.4,15.4,0,0,1-3.58-1.21l-.79-.41,2-5.16,1,.55a13.89,13.89,0,0,0,2.78,1,16.26,16.26,0,0,0,4.19.5,11.79,11.79,0,0,0,2.51-.26,5.47,5.47,0,0,0,1.85-.78,3.78,3.78,0,0,0,1.17-1.28,3.56,3.56,0,0,0,.42-1.79,3.25,3.25,0,0,0-.82-2.33,10.16,10.16,0,0,0-2.51-1.88,34.38,34.38,0,0,0-3.49-1.65,20.54,20.54,0,0,1-3.77-2,11.24,11.24,0,0,1-3-3,8.36,8.36,0,0,1-1.27-4.76A8.07,8.07,0,0,1,51.5,2.35C53.36.79,56,0,59.28,0a29.24,29.24,0,0,1,5.07.41,13.88,13.88,0,0,1,3.7,1.11l.78.38L67.09,7.07l-1-.5a13.09,13.09,0,0,0-2.75-.88,18.52,18.52,0,0,0-4.2-.43,5.5,5.5,0,0,0-3.7,1,3,3,0,0,0-1.12,2.32,3,3,0,0,0,.83,2.17,10,10,0,0,0,2.51,1.86c1.07.59,2.26,1.18,3.52,1.75a22.82,22.82,0,0,1,3.75,2.14,12,12,0,0,1,3,3.06,8.11,8.11,0,0,1,1.27,4.61,9.77,9.77,0,0,1-.79,4,8.43,8.43,0,0,1-2.34,3.09,10.55,10.55,0,0,1-3.65,1.95A15.5,15.5,0,0,1,57.7,33.89Zm-7.54-3.16a19.34,19.34,0,0,0,2.3.68,24.22,24.22,0,0,0,5.24.48,13.86,13.86,0,0,0,4.1-.57,8.54,8.54,0,0,0,3-1.58,6.48,6.48,0,0,0,1.8-2.37,7.75,7.75,0,0,0,.62-3.16,6.11,6.11,0,0,0-.93-3.49,9.73,9.73,0,0,0-2.5-2.54,21.23,21.23,0,0,0-3.43-2c-1.31-.59-2.54-1.2-3.65-1.81a12.17,12.17,0,0,1-3-2.24,5,5,0,0,1-1.38-3.55,5,5,0,0,1,1.79-3.81,7.35,7.35,0,0,1,5-1.55,20.7,20.7,0,0,1,4.65.48,20.15,20.15,0,0,1,2.14.6L66.36,3A16.34,16.34,0,0,0,64,2.38,27.06,27.06,0,0,0,59.28,2c-2.82,0-5,.63-6.49,1.88a6.08,6.08,0,0,0-2.15,5,6.5,6.5,0,0,0,.93,3.65A9.08,9.08,0,0,0,54.05,15a18.49,18.49,0,0,0,3.41,1.82,38.43,38.43,0,0,1,3.69,1.74,12,12,0,0,1,3,2.26,5.23,5.23,0,0,1,1.37,3.71,5.56,5.56,0,0,1-.68,2.78,5.88,5.88,0,0,1-1.77,1.94,7.23,7.23,0,0,1-2.56,1.08,13.81,13.81,0,0,1-2.94.31,18,18,0,0,1-4.71-.57,19.36,19.36,0,0,1-2.18-.71Z"/><path d="M92.45,18.22H77.65V32.36H74V1.53h3.66V15h14.8V1.53H96.1V32.36H92.45Z"/><path d="M97.1,33.36H91.45V19.22H78.65V33.36H73V.53h5.66V14h12.8V.53H97.1Zm-3.65-2H95.1V2.53H93.45V16H76.65V2.53H75V31.36h1.66V17.22h16.8Z"/><path d="M102.31,16.94c0-5.13,1.09-9.08,3.26-11.82S110.84,1,114.86,1a12.76,12.76,0,0,1,5.64,1.15,10.51,10.51,0,0,1,3.94,3.23,14.24,14.24,0,0,1,2.31,5,26.47,26.47,0,0,1,.75,6.54q0,7.71-3.28,11.83c-2.19,2.74-5.3,4.12-9.36,4.12a12.67,12.67,0,0,1-5.57-1.15,10.53,10.53,0,0,1-3.92-3.24,14.08,14.08,0,0,1-2.31-5A26.35,26.35,0,0,1,102.31,16.94Zm3.88,0a22.91,22.91,0,0,0,.5,4.85,13.19,13.19,0,0,0,1.57,4A8.17,8.17,0,0,0,111,28.59a7.18,7.18,0,0,0,3.89,1,7.6,7.6,0,0,0,6.43-3.11q2.34-3.11,2.34-9.58a22.32,22.32,0,0,0-.51-4.82,13.12,13.12,0,0,0-1.58-4,8.47,8.47,0,0,0-2.74-2.78,7.34,7.34,0,0,0-3.94-1,7.49,7.49,0,0,0-6.36,3.1C107,9.43,106.19,12.63,106.19,16.94Z"/><path d="M114.86,33.89a13.67,13.67,0,0,1-6-1.25,11.74,11.74,0,0,1-4.28-3.54,15.28,15.28,0,0,1-2.48-5.37,27.42,27.42,0,0,1-.78-6.79c0-5.34,1.17-9.53,3.48-12.44S110.54,0,114.86,0a14,14,0,0,1,6.07,1.24,11.61,11.61,0,0,1,4.31,3.54,15.23,15.23,0,0,1,2.48,5.38,27.33,27.33,0,0,1,.78,6.78c0,5.35-1.17,9.54-3.5,12.45S119.22,33.89,114.86,33.89Zm0-31.89c-3.73,0-6.51,1.22-8.51,3.74s-3,6.32-3,11.2a25.37,25.37,0,0,0,.72,6.3,13.21,13.21,0,0,0,2.14,4.67,9.75,9.75,0,0,0,3.56,2.93,11.73,11.73,0,0,0,5.13,1.05c3.77,0,6.57-1.23,8.58-3.74s3.06-6.32,3.06-11.21a25.85,25.85,0,0,0-.71-6.29A13.32,13.32,0,0,0,123.64,6a9.6,9.6,0,0,0-3.57-2.93A11.93,11.93,0,0,0,114.86,2Zm0,28.63a8.2,8.2,0,0,1-4.43-1.19,9.46,9.46,0,0,1-3-3.1A14.23,14.23,0,0,1,105.72,22a23.58,23.58,0,0,1-.53-5.06c0-4.51.84-7.94,2.51-10.17a8.47,8.47,0,0,1,7.16-3.51,8.3,8.3,0,0,1,4.48,1.19,9.46,9.46,0,0,1,3,3.09,13.77,13.77,0,0,1,1.72,4.37,23.64,23.64,0,0,1,.53,5c0,4.52-.86,8-2.54,10.18A8.58,8.58,0,0,1,114.86,30.63Zm0-25.37A6.5,6.5,0,0,0,109.3,8c-1.4,1.89-2.11,4.91-2.11,9a21.49,21.49,0,0,0,.48,4.63,12.34,12.34,0,0,0,1.44,3.73,7.25,7.25,0,0,0,2.39,2.44,6.06,6.06,0,0,0,3.36.89,6.6,6.6,0,0,0,5.63-2.71c1.42-1.88,2.14-4.9,2.14-9a21.71,21.71,0,0,0-.49-4.61,11.9,11.9,0,0,0-1.45-3.73,7.59,7.59,0,0,0-2.42-2.46A6.36,6.36,0,0,0,114.86,5.26Z"/><path d="M133.71,1.84a21.9,21.9,0,0,1,3.61-.53c1.3-.09,2.57-.13,3.84-.13a22.32,22.32,0,0,1,4.11.39A11.1,11.1,0,0,1,149.08,3a8.12,8.12,0,0,1,2.8,2.9A9.29,9.29,0,0,1,153,10.65a10.23,10.23,0,0,1-1,4.75,9.07,9.07,0,0,1-2.69,3.15,10.8,10.8,0,0,1-3.83,1.74,18.76,18.76,0,0,1-4.45.53h-.73l-1.05,0-1.08-.07a6.92,6.92,0,0,1-.75-.09V32.36h-3.66Zm7.53,2.51c-.76,0-1.49,0-2.2,0a7.35,7.35,0,0,0-1.67.22V17.38a2.11,2.11,0,0,0,.7.11l1,.05,1,0h.7a15.76,15.76,0,0,0,3-.29,7.65,7.65,0,0,0,2.66-1,5.5,5.5,0,0,0,1.92-2.12,7.41,7.41,0,0,0,.72-3.47,6,6,0,0,0-.68-3,5.53,5.53,0,0,0-1.81-1.94,7.49,7.49,0,0,0-2.53-1A12.89,12.89,0,0,0,141.24,4.35Z"/><path d="M138.37,33.36h-5.66V1.05l.77-.19a24.07,24.07,0,0,1,3.77-.55,31.44,31.44,0,0,1,8.21.28,12.46,12.46,0,0,1,4.15,1.58,9.24,9.24,0,0,1,3.13,3.26A10.23,10.23,0,0,1,154,10.65a11.18,11.18,0,0,1-1.13,5.22,9.85,9.85,0,0,1-3,3.49,11.85,11.85,0,0,1-4.17,1.9,19.8,19.8,0,0,1-4.69.56h-.73l-1.1,0-.78-.05Zm-3.66-2h1.66V19.42l1.2.24a4.3,4.3,0,0,0,.63.07l1,.07,1,0H141a17.83,17.83,0,0,0,4.21-.5,9.8,9.8,0,0,0,3.48-1.58,7.87,7.87,0,0,0,2.39-2.8,9.21,9.21,0,0,0,.9-4.29A8.39,8.39,0,0,0,151,6.44a7.2,7.2,0,0,0-2.46-2.56,10.17,10.17,0,0,0-3.47-1.32,29.29,29.29,0,0,0-7.7-.25,20.21,20.21,0,0,0-2.68.34Zm6.09-12.8h-.7l-1.06,0-1-.05a3,3,0,0,1-1-.18l-.62-.25V3.86l.72-.21A8.89,8.89,0,0,1,139,3.39a20.76,20.76,0,0,1,5.28.29,8.63,8.63,0,0,1,2.86,1.17,6.43,6.43,0,0,1,2.13,2.29,7,7,0,0,1,.81,3.51,8.35,8.35,0,0,1-.84,3.94,6.55,6.55,0,0,1-2.27,2.5,8.86,8.86,0,0,1-3,1.17A16.85,16.85,0,0,1,140.8,18.56Zm-2.43-2,.76,0,1,0h.7a14.39,14.39,0,0,0,2.78-.27,6.7,6.7,0,0,0,2.33-.9,4.34,4.34,0,0,0,1.56-1.74,6.32,6.32,0,0,0,.61-3,5.1,5.1,0,0,0-.55-2.53,4.44,4.44,0,0,0-1.48-1.59,6.54,6.54,0,0,0-2.2-.9,19,19,0,0,0-4.77-.24l-.71.05Z"/><path d="M37.8,139.21a4,4,0,0,1,.69-2.51,2.36,2.36,0,0,1,2-.88,2.79,2.79,0,0,1,1.2.24,2.55,2.55,0,0,1,.84.69,3.1,3.1,0,0,1,.49,1.07,5.9,5.9,0,0,1,.16,1.39,4,4,0,0,1-.7,2.52,2.41,2.41,0,0,1-2,.87,2.75,2.75,0,0,1-1.19-.24,2.22,2.22,0,0,1-.83-.69A2.93,2.93,0,0,1,38,140.6,5.42,5.42,0,0,1,37.8,139.21Zm.82,0a4.85,4.85,0,0,0,.11,1,2.75,2.75,0,0,0,.33.86,1.92,1.92,0,0,0,.58.59,1.58,1.58,0,0,0,.83.22,1.63,1.63,0,0,0,1.37-.66,3.41,3.41,0,0,0,.49-2,4.25,4.25,0,0,0-.11-1,2.81,2.81,0,0,0-.33-.87,2,2,0,0,0-.58-.59,1.64,1.64,0,0,0-.84-.22,1.6,1.6,0,0,0-1.36.66A3.48,3.48,0,0,0,38.62,139.21Z"/><path d="M44.48,136a3.57,3.57,0,0,1,.77-.11l.81,0a5.33,5.33,0,0,1,.88.08,2.57,2.57,0,0,1,.81.31,1.76,1.76,0,0,1,.59.62,2,2,0,0,1,.23,1,2.07,2.07,0,0,1-.22,1,1.78,1.78,0,0,1-.57.67,2.22,2.22,0,0,1-.81.37A3.74,3.74,0,0,1,46,140h-.61l-.16,0v2.49h-.77Zm1.6.53h-.47a1.55,1.55,0,0,0-.36.05v2.71a.57.57,0,0,0,.15,0H46a3.39,3.39,0,0,0,.64-.06,1.46,1.46,0,0,0,.56-.22,1.12,1.12,0,0,0,.41-.45,1.59,1.59,0,0,0,.16-.74,1.26,1.26,0,0,0-.15-.64,1.15,1.15,0,0,0-.38-.41,1.43,1.43,0,0,0-.54-.22A2.46,2.46,0,0,0,46.08,136.53Z"/><path d="M49.71,135.93h3.57v.7H50.49v2.14h2.56v.69H50.49v2.34h2.84v.69H49.71Z"/><path d="M55.91,138.2l-.5-.95h0l.09.95v4.29h-.73v-6.66h.41l3.14,4.37.49.9h0l-.11-.9v-4.27h.73v6.66H59Z"/></g></g></svg>